<?xml version="1.0" encoding="iso-8859-1"?>
<!-- Generator: Adobe Illustrator 19.0.0, SVG Export Plug-In . SVG Version: 6.00 Build 0)  -->
<svg version="1.1" id="Capa_1" xmlns="http://www.w3.org/2000/svg" xmlns:xlink="http://www.w3.org/1999/xlink" x="0px" y="0px"
	 viewBox="0 0 512.127 512.127" style="enable-background:new 0 0 512.127 512.127;" xml:space="preserve">
<g transform="translate(-1 -1)">
	<path style="fill:#E64C3C;" d="M438.179,76.048C351.825-10.353,216.463-23.72,114.877,44.121S-26.225,242.116,20.496,354.985
		s166.667,177.014,286.481,153.208c119.814-23.806,206.126-128.935,206.149-251.091C513.235,189.181,486.261,124.02,438.179,76.048z
		 M257.126,371.861c-63.355-0.016-114.705-51.384-114.699-114.739c0.005-63.355,51.364-114.713,114.719-114.719
		c63.355-0.005,114.722,51.344,114.739,114.699C371.824,320.456,320.48,371.8,257.126,371.861z"/>
	<path style="fill:#F0C419;" d="M513.126,257.102c0.011,67.899-26.957,133.02-74.968,181.032s-113.133,74.98-181.032,74.968V371.861
		c46.417,0.012,88.267-27.945,106.028-70.83s7.931-92.245-24.902-125.054l99.928-99.928
		C486.261,124.02,513.235,189.181,513.126,257.102z"/>
	<path style="fill:#71C285;" d="M257.126,371.861v141.241c-103.541-0.02-196.878-62.396-236.505-158.054s-17.743-205.766,55.452-279
		L176,175.976c-32.833,32.809-42.663,82.17-24.902,125.054S210.709,371.872,257.126,371.861z"/>
</g>
<g>
</g>
<g>
</g>
<g>
</g>
<g>
</g>
<g>
</g>
<g>
</g>
<g>
</g>
<g>
</g>
<g>
</g>
<g>
</g>
<g>
</g>
<g>
</g>
<g>
</g>
<g>
</g>
<g>
</g>
</svg>
