<?xml version="1.0" encoding="iso-8859-1"?>
<!-- Generator: Adobe Illustrator 19.0.0, SVG Export Plug-In . SVG Version: 6.00 Build 0)  -->
<svg version="1.1" id="Capa_1" xmlns="http://www.w3.org/2000/svg" xmlns:xlink="http://www.w3.org/1999/xlink" x="0px" y="0px"
	 viewBox="0 0 512 512" style="enable-background:new 0 0 512 512;" xml:space="preserve">
<g>
	<path style="fill:#E64C3C;" d="M220.69,105.931c9.739-0.029,17.627-7.916,17.655-17.655V35.31
		c-0.028-9.739-7.916-17.627-17.655-17.655H44.138v88.276H220.69z"/>
	<path style="fill:#F0C419;" d="M344.276,256c9.739-0.029,17.627-7.916,17.655-17.655v-52.966
		c-0.028-9.739-7.916-17.627-17.655-17.655H44.138V256H344.276z"/>
	<path style="fill:#8697CB;" d="M467.862,317.793H44.138v88.276h423.724c9.739-0.029,17.627-7.916,17.655-17.655v-52.966
		C485.489,325.709,477.601,317.822,467.862,317.793z"/>
	<polygon style="fill:#C03A2B;" points="194.207,105.931 44.138,105.931 44.138,17.655 105.931,17.655 	"/>
	<polygon style="fill:#F29C1F;" points="194.207,256 44.138,256 44.138,167.724 105.931,167.724 	"/>
	<polygon style="fill:#556080;" points="194.207,406.069 44.138,406.069 44.138,317.793 105.931,317.793 	"/>
	<path style="fill:#3B97D3;" d="M52.966,441.379V17.655C52.966,7.904,45.061,0,35.31,0H17.655C7.904,0,0,7.904,0,17.655v476.69
		C0,504.095,7.904,512,17.655,512h476.69c9.751,0,17.655-7.905,17.655-17.655V476.69c0-9.751-7.905-17.655-17.655-17.655H70.621
		C60.87,459.034,52.966,451.13,52.966,441.379z"/>
</g>
<g>
</g>
<g>
</g>
<g>
</g>
<g>
</g>
<g>
</g>
<g>
</g>
<g>
</g>
<g>
</g>
<g>
</g>
<g>
</g>
<g>
</g>
<g>
</g>
<g>
</g>
<g>
</g>
<g>
</g>
</svg>
