<?xml version="1.0" encoding="iso-8859-1"?>
<!-- Generator: Adobe Illustrator 19.0.0, SVG Export Plug-In . SVG Version: 6.00 Build 0)  -->
<svg version="1.1" id="Capa_1" xmlns="http://www.w3.org/2000/svg" xmlns:xlink="http://www.w3.org/1999/xlink" x="0px" y="0px"
	 viewBox="0 0 512 512" style="enable-background:new 0 0 512 512;" xml:space="preserve">
<g>
	<path style="fill:#F0C419;" d="M450.207,75.034L282.483,242.759l-57.379-57.379L128,282.483l-66.207-66.207l-30.897-5.149
		l13.241,238.345c0.029,9.739,7.916,17.626,17.655,17.655L512,467.862V136.828L450.207,75.034z"/>
	<path style="fill:#3B97D3;" d="M512,450.207v44.138c-0.029,9.739-7.916,17.627-17.655,17.655H17.655
		C7.916,511.971,0.029,504.084,0,494.345V17.655C0.028,7.916,7.916,0.028,17.655,0h26.483c9.739,0.028,17.627,7.916,17.655,17.655
		v414.897c0.029,9.739,7.916,17.626,17.655,17.655H512z"/>
	<polygon style="fill:#E64C3C;" points="512,123.586 512,203.034 450.207,141.241 282.483,308.966 225.103,251.586 128,348.69 
		61.793,282.483 61.793,203.034 128,269.241 225.103,172.138 282.483,229.517 450.207,61.793 	"/>
</g>
<g>
</g>
<g>
</g>
<g>
</g>
<g>
</g>
<g>
</g>
<g>
</g>
<g>
</g>
<g>
</g>
<g>
</g>
<g>
</g>
<g>
</g>
<g>
</g>
<g>
</g>
<g>
</g>
<g>
</g>
</svg>
