<?xml version="1.0" encoding="iso-8859-1"?>
<!-- Generator: Adobe Illustrator 19.0.0, SVG Export Plug-In . SVG Version: 6.00 Build 0)  -->
<svg version="1.1" id="Capa_1" xmlns="http://www.w3.org/2000/svg" xmlns:xlink="http://www.w3.org/1999/xlink" x="0px" y="0px"
	 viewBox="0 0 512 512" style="enable-background:new 0 0 512 512;" xml:space="preserve">
<g>
	<g>
		<path d="M424.95,63.701C376.16,20.759,313.407-1.82,248.267,0.116c-65.44,1.948-126.988,28.529-173.305,74.847
			C28.644,121.279,2.063,182.827,0.115,248.267C-1.824,313.414,20.757,376.16,63.7,424.95c1.482,1.685,3.552,2.545,5.633,2.545
			c1.76,0,3.527-0.616,4.952-1.87c3.109-2.737,3.412-7.476,0.675-10.585c-40.422-45.926-61.677-104.994-59.851-166.327
			c1.833-61.604,26.857-119.542,70.459-163.145C129.17,41.965,187.11,16.943,248.713,15.11
			c61.332-1.834,120.401,19.43,166.327,59.852c3.109,2.737,7.849,2.436,10.585-0.675C428.362,71.177,428.06,66.438,424.95,63.701z"
			/>
	</g>
</g>
<g>
	<g>
		<path d="M448.3,87.05c-2.736-3.109-7.476-3.411-10.585-0.675c-3.109,2.737-3.412,7.476-0.675,10.585
			c40.421,45.926,61.677,104.994,59.852,166.327c-1.833,61.603-26.856,119.542-70.459,163.145
			c-43.603,43.603-101.541,68.626-163.145,70.459c-61.334,1.824-120.401-19.43-166.327-59.851
			c-3.108-2.736-7.848-2.435-10.585,0.675c-2.737,3.109-2.435,7.848,0.675,10.585C133.904,489.539,193.63,512,255.992,512
			c2.576,0,5.158-0.039,7.742-0.116c65.441-1.948,126.988-28.529,173.305-74.846c46.318-46.317,72.899-107.865,74.847-173.305
			C513.823,198.588,491.242,135.841,448.3,87.05z"/>
	</g>
</g>
<g>
	<g>
		<path d="M381.872,210.852c-10.645-11.757-25.836-18.5-41.68-18.5c-15.844,0-31.036,6.743-41.68,18.5
			c-2.78,3.071-2.544,7.813,0.526,10.594c3.071,2.779,7.813,2.544,10.594-0.526c7.806-8.622,18.945-13.567,30.56-13.567
			s22.753,4.945,30.56,13.567c1.48,1.635,3.518,2.466,5.563,2.466c1.795,0,3.596-0.641,5.031-1.94
			C384.417,218.666,384.652,213.923,381.872,210.852z"/>
	</g>
</g>
<g>
	<g>
		<path d="M213.434,210.859c-10.626-11.761-25.793-18.506-41.613-18.506c-15.82,0-30.987,6.745-41.613,18.506
			c-2.777,3.074-2.537,7.816,0.537,10.593c3.074,2.777,7.816,2.536,10.593-0.537c7.788-8.619,18.898-13.562,30.483-13.562
			s22.695,4.943,30.483,13.562c1.48,1.639,3.52,2.472,5.567,2.472c1.792,0,3.591-0.639,5.026-1.935
			C215.97,218.675,216.21,213.932,213.434,210.859z"/>
	</g>
</g>
<g>
	<g>
		<path d="M368.949,317.979c-3.059-5.479-9.147-8.063-15.148-6.43c-27.325,7.436-62.048,11.531-97.772,11.531
			c-35.724,0-70.447-4.095-97.771-11.531c-6.004-1.636-12.09,0.951-15.148,6.43c-3.047,5.458-2.055,11.973,2.468,16.209
			c28.216,26.424,68.474,41.579,110.45,41.579c41.978,0,82.237-15.155,110.453-41.579
			C371.004,329.952,371.996,323.438,368.949,317.979z M256.028,360.768c-35.753,0-70.026-11.975-95.148-33.052
			c27.441,6.702,60.912,10.365,95.148,10.365c34.238,0,67.709-3.663,95.149-10.365C326.053,348.793,291.781,360.768,256.028,360.768
			z"/>
	</g>
</g>
<g>
</g>
<g>
</g>
<g>
</g>
<g>
</g>
<g>
</g>
<g>
</g>
<g>
</g>
<g>
</g>
<g>
</g>
<g>
</g>
<g>
</g>
<g>
</g>
<g>
</g>
<g>
</g>
<g>
</g>
</svg>
