<?xml version="1.0" encoding="iso-8859-1"?>
<!-- Generator: Adobe Illustrator 19.0.0, SVG Export Plug-In . SVG Version: 6.00 Build 0)  -->
<svg version="1.1" id="Capa_1" xmlns="http://www.w3.org/2000/svg" xmlns:xlink="http://www.w3.org/1999/xlink" x="0px" y="0px"
	 viewBox="0 0 512 512" style="enable-background:new 0 0 512 512;" xml:space="preserve">
<g>
	<g>
		<path d="M191.863,216.432c-4.142,0-7.5,3.358-7.5,7.5v12.026c0,6.916-5.626,12.542-12.542,12.542s-12.542-5.626-12.542-12.542
			v-16.034c-0.001-6.915,5.626-12.542,12.542-12.542c4.142,0,7.5-3.358,7.5-7.5c0-4.143-3.358-7.5-7.5-7.5
			c-15.187,0-27.542,12.355-27.542,27.542v16.034c0,15.187,12.355,27.542,27.542,27.542s27.542-12.355,27.542-27.542v-12.026
			C199.363,219.79,196.005,216.432,191.863,216.432z"/>
	</g>
</g>
<g>
	<g>
		<path d="M360.221,216.433c-4.142,0-7.5,3.358-7.5,7.5v12.026c0,6.916-5.626,12.542-12.542,12.542s-12.543-5.626-12.543-12.542
			v-16.034c0-6.916,5.627-12.542,12.543-12.542c4.142,0,7.5-3.358,7.5-7.5c0-4.143-3.358-7.5-7.5-7.5
			c-15.187,0-27.543,12.355-27.543,27.542v16.034c0,15.187,12.356,27.542,27.543,27.542c15.187,0,27.542-12.355,27.542-27.542
			v-12.026C367.721,219.791,364.363,216.433,360.221,216.433z"/>
	</g>
</g>
<g>
	<g>
		<path d="M341.248,330.651c-3.05-2.805-7.793-2.606-10.598,0.441c-17.079,18.563-44.986,29.646-74.651,29.646
			s-57.572-11.083-74.651-29.646c-2.805-3.048-7.55-3.246-10.598-0.441c-3.048,2.805-3.246,7.549-0.441,10.598
			c19.87,21.597,51.904,34.49,85.69,34.49s65.82-12.894,85.69-34.49C344.493,338.2,344.296,333.456,341.248,330.651z"/>
	</g>
</g>
<g>
	<g>
		<path d="M424.949,63.702C376.159,20.759,313.406-1.826,248.267,0.117c-65.44,1.947-126.988,28.528-173.305,74.846
			C28.644,121.279,2.063,182.827,0.115,248.268C-1.824,313.414,20.757,376.162,63.7,424.951c1.482,1.685,3.552,2.545,5.633,2.545
			c1.76,0,3.527-0.616,4.952-1.87c3.109-2.737,3.412-7.476,0.675-10.585c-40.422-45.925-61.677-104.994-59.852-166.327
			c1.833-61.604,26.857-119.542,70.459-163.145C129.17,41.966,187.109,16.943,248.712,15.11
			c61.338-1.824,120.4,19.43,166.327,59.852c3.109,2.736,7.848,2.435,10.585-0.675S428.059,66.438,424.949,63.702z"/>
	</g>
</g>
<g>
	<g>
		<path d="M448.3,87.052c-2.736-3.109-7.476-3.412-10.585-0.675c-3.109,2.736-3.412,7.476-0.675,10.585
			c40.421,45.925,61.677,104.994,59.852,166.326c-1.833,61.604-26.856,119.542-70.459,163.145
			c-43.603,43.603-101.541,68.625-163.145,70.459c-61.336,1.824-120.401-19.43-166.327-59.852
			c-3.108-2.736-7.848-2.435-10.585,0.675c-2.737,3.109-2.435,7.849,0.675,10.585c46.854,41.239,106.579,63.7,168.941,63.7
			c2.577,0,5.158-0.038,7.742-0.115c65.441-1.948,126.988-28.528,173.305-74.846c46.318-46.317,72.899-107.865,74.847-173.305
			C513.823,198.588,491.242,135.84,448.3,87.052z"/>
	</g>
</g>
<g>
</g>
<g>
</g>
<g>
</g>
<g>
</g>
<g>
</g>
<g>
</g>
<g>
</g>
<g>
</g>
<g>
</g>
<g>
</g>
<g>
</g>
<g>
</g>
<g>
</g>
<g>
</g>
<g>
</g>
</svg>
